<svg width="19" height="19" viewBox="0 0 19 19" fill="none" xmlns="http://www.w3.org/2000/svg">
<path fill-rule="evenodd" clip-rule="evenodd" d="M2.33331 0.336426H16.3333C17.4379 0.336426 18.3333 1.23186 18.3333 2.33643V16.3364C18.3333 17.441 17.4379 18.3364 16.3333 18.3364H2.33331C1.22874 18.3364 0.333313 17.441 0.333313 16.3364V2.33643C0.333313 1.23186 1.22874 0.336426 2.33331 0.336426ZM5.33331 15.3364C5.60945 15.3364 5.83331 15.1125 5.83331 14.8364V7.83643C5.83331 7.56033 5.60945 7.33643 5.33331 7.33643H3.83331C3.55717 7.33643 3.33331 7.56033 3.33331 7.83643V14.8364C3.33331 15.1125 3.55717 15.3364 3.83331 15.3364H5.33331ZM4.58331 6.33643C3.75488 6.33643 3.08331 5.66486 3.08331 4.83643C3.08331 4.008 3.75488 3.33643 4.58331 3.33643C5.41174 3.33643 6.08331 4.008 6.08331 4.83643C6.08331 5.66486 5.41174 6.33643 4.58331 6.33643ZM14.8333 15.3364C15.1094 15.3364 15.3333 15.1125 15.3333 14.8364V10.2364C15.3658 8.64723 14.1909 7.29095 12.6133 7.09643C11.5103 6.99568 10.4416 7.51083 9.83331 8.43643V7.83643C9.83331 7.56033 9.60941 7.33643 9.33331 7.33643H7.83331C7.55721 7.33643 7.33331 7.56033 7.33331 7.83643V14.8364C7.33331 15.1125 7.55721 15.3364 7.83331 15.3364H9.33331C9.60941 15.3364 9.83331 15.1125 9.83331 14.8364V11.0864C9.83331 10.258 10.5049 9.58643 11.3333 9.58643C12.1617 9.58643 12.8333 10.258 12.8333 11.0864V14.8364C12.8333 15.1125 13.0572 15.3364 13.3333 15.3364H14.8333Z" fill="black"/>
</svg>
