<svg width="18" height="17" viewBox="0 0 18 17" fill="none" xmlns="http://www.w3.org/2000/svg">
<path d="M17.9728 2.94299C17.5084 3.56251 16.947 4.10292 16.3103 4.54335C16.3103 4.70518 16.3103 4.86701 16.3103 5.03784C16.3154 7.97669 15.1415 10.7947 13.0518 12.8601C10.962 14.9255 8.1312 16.0655 5.19405 16.0245C3.49599 16.0302 1.81967 15.6425 0.296422 14.8917C0.214282 14.8558 0.161312 14.7746 0.161622 14.6849V14.586C0.161622 14.4569 0.266232 14.3523 0.395272 14.3523C2.06442 14.2972 3.67402 13.7185 4.99634 12.698C3.48553 12.6675 2.12619 11.7725 1.5006 10.3963C1.46901 10.3212 1.47884 10.2349 1.52657 10.1688C1.57429 10.1027 1.653 10.0663 1.73425 10.0727C2.19342 10.1188 2.65718 10.0761 3.1002 9.94679C1.43239 9.60059 0.179212 8.21599 -0.000137933 6.52129C-0.00650793 6.43999 0.029922 6.36129 0.096002 6.31349C0.162072 6.26579 0.248242 6.25589 0.323382 6.28759C0.770942 6.48509 1.25409 6.58909 1.74324 6.59319C0.281842 5.63405 -0.349388 3.80964 0.206552 2.15181C0.263942 1.99072 0.401812 1.87171 0.569502 1.83853C0.737182 1.80534 0.909962 1.86287 1.02432 1.98998C2.99639 4.08884 5.70604 5.33955 8.5819 5.47838C8.5083 5.18444 8.4721 4.88235 8.4741 4.57931C8.501 2.99031 9.4842 1.5748 10.9634 0.995458C12.4425 0.416128 14.1249 0.787618 15.223 1.93603C15.9714 1.79344 16.695 1.54204 17.3707 1.1898C17.4202 1.1589 17.483 1.1589 17.5325 1.1898C17.5634 1.23932 17.5634 1.30211 17.5325 1.35163C17.2052 2.10111 16.6523 2.72971 15.9509 3.14978C16.5651 3.07855 17.1685 2.93366 17.7482 2.71823C17.797 2.68501 17.8611 2.68501 17.9099 2.71823C17.9508 2.73693 17.9814 2.7727 17.9935 2.81601C18.0056 2.85932 17.998 2.90577 17.9728 2.94299Z" fill="black"/>
</svg>
