<svg width="20" height="20" viewBox="0 0 20 20" fill="none" xmlns="http://www.w3.org/2000/svg">
<path d="M9.07088 0.948769C9.41462 0.13231 10.5854 0.132311 10.9291 0.948771L12.9579 5.76766C13.1029 6.11186 13.4306 6.34704 13.8067 6.37683L19.0727 6.7939C19.9649 6.86457 20.3267 7.96456 19.6469 8.53983L15.6348 11.9351C15.3482 12.1776 15.223 12.5582 15.3106 12.9208L16.5363 17.9974C16.744 18.8575 15.7969 19.5374 15.033 19.0765L10.5245 16.356C10.2025 16.1616 9.7975 16.1616 9.47548 16.356L4.96699 19.0765C4.20311 19.5374 3.25596 18.8575 3.46363 17.9974L4.68942 12.9208C4.77698 12.5582 4.65182 12.1776 4.36526 11.9351L0.353062 8.53983C-0.326718 7.96456 0.0350679 6.86457 0.927291 6.7939L6.19336 6.37683C6.5695 6.34704 6.89716 6.11186 7.04207 5.76766L9.07088 0.948769Z" fill="black"/>
</svg>
