<svg width="18" height="19" viewBox="0 0 18 19" fill="none" xmlns="http://www.w3.org/2000/svg">
<path fill-rule="evenodd" clip-rule="evenodd" d="M2 0.225586H16C17.1046 0.225586 18 1.12102 18 2.22559V16.2256C18 17.3302 17.1046 18.2256 16 18.2256H2C0.89543 18.2256 0 17.3302 0 16.2256V2.22559C0 1.12102 0.89543 0.225586 2 0.225586ZM5 15.2256C5.27614 15.2256 5.5 15.0017 5.5 14.7256V7.72559C5.5 7.44949 5.27614 7.22559 5 7.22559H3.5C3.22386 7.22559 3 7.44949 3 7.72559V14.7256C3 15.0017 3.22386 15.2256 3.5 15.2256H5ZM4.25 6.22559C3.42157 6.22559 2.75 5.55402 2.75 4.72559C2.75 3.89716 3.42157 3.22559 4.25 3.22559C5.07843 3.22559 5.75 3.89716 5.75 4.72559C5.75 5.55402 5.07843 6.22559 4.25 6.22559ZM14.5 15.2256C14.7761 15.2256 15 15.0017 15 14.7256V10.1256C15.0325 8.53639 13.8576 7.18011 12.28 6.98559C11.177 6.88484 10.1083 7.39999 9.5 8.32559V7.72559C9.5 7.44949 9.2761 7.22559 9 7.22559H7.5C7.2239 7.22559 7 7.44949 7 7.72559V14.7256C7 15.0017 7.2239 15.2256 7.5 15.2256H9C9.2761 15.2256 9.5 15.0017 9.5 14.7256V10.9756C9.5 10.1472 10.1716 9.47559 11 9.47559C11.8284 9.47559 12.5 10.1472 12.5 10.9756V14.7256C12.5 15.0017 12.7239 15.2256 13 15.2256H14.5Z" fill="black"/>
</svg>
