<svg width="10" height="19" viewBox="0 0 10 19" fill="none" xmlns="http://www.w3.org/2000/svg">
<path d="M9.5 3.22559H6.5C5.9477 3.22559 5.5 3.67331 5.5 4.22559V7.22559H9.5C9.6137 7.22307 9.7216 7.27599 9.7892 7.36749C9.8568 7.45899 9.8758 7.57759 9.84 7.68559L9.1 9.88559C9.0318 10.0875 8.8431 10.224 8.63 10.2256H5.5V17.7256C5.5 18.0017 5.2761 18.2256 5 18.2256H2.5C2.22386 18.2256 2 18.0017 2 17.7256V10.2256H0.5C0.22386 10.2256 0 10.0017 0 9.72559V7.72559C0 7.44949 0.22386 7.22559 0.5 7.22559H2V4.22559C2 2.01645 3.7909 0.225586 6 0.225586H9.5C9.7761 0.225586 10 0.449446 10 0.725586V2.72559C10 3.00173 9.7761 3.22559 9.5 3.22559Z" fill="black"/>
</svg>
