<svg width="19" height="19" viewBox="0 0 19 19" fill="none" xmlns="http://www.w3.org/2000/svg">
<path fill-rule="evenodd" clip-rule="evenodd" d="M9.33331 0.336426C4.36476 0.336426 0.333313 4.36788 0.333313 9.33643C0.333313 14.305 4.36476 18.3364 9.33331 18.3364C14.2921 18.3364 18.3333 14.305 18.3333 9.33643C18.3333 4.36788 14.2921 0.336426 9.33331 0.336426ZM15.278 4.48502C16.3517 5.79305 16.996 7.46223 17.0155 9.26813C16.7617 9.21933 14.2237 8.70193 11.6663 9.02403C11.6077 8.89713 11.5589 8.76053 11.5003 8.62383C11.3441 8.25293 11.1685 7.87223 10.9927 7.51103C13.8235 6.35923 15.112 4.69977 15.278 4.48502ZM9.33331 1.66398C11.2856 1.66398 13.0719 2.39609 14.4288 3.59674C14.2921 3.79196 13.1305 5.34402 10.3973 6.36896C9.13811 4.05552 7.74221 2.16181 7.52751 1.86897C8.10331 1.73231 8.70861 1.66398 9.33331 1.66398ZM6.06327 2.38632C6.26825 2.65964 7.63481 4.56311 8.91361 6.82774C5.32138 7.78443 2.14893 7.76483 1.80728 7.76483C2.30511 5.38307 3.91574 3.4015 6.06327 2.38632ZM1.64134 9.34623C1.64134 9.26813 1.64134 9.19003 1.64134 9.11193C1.97322 9.12163 5.70207 9.17053 9.53831 8.01863C9.76281 8.44813 9.96781 8.88743 10.163 9.32663C10.0654 9.35593 9.95801 9.38523 9.86041 9.41453C5.8973 10.6932 3.78884 14.1878 3.61314 14.4806C2.39296 13.1238 1.64134 11.318 1.64134 9.34623ZM9.33331 17.0284C7.55671 17.0284 5.91683 16.4232 4.61856 15.408C4.75522 15.1249 6.31702 12.1184 10.6511 10.6054C10.6706 10.5956 10.6804 10.5956 10.6999 10.5859C11.7834 13.3874 12.2227 15.7398 12.3398 16.4134C11.4125 16.8136 10.3973 17.0284 9.33331 17.0284ZM13.6185 15.7106C13.5405 15.242 13.1305 12.9969 12.125 10.2344C14.5361 9.85373 16.6446 10.4785 16.9082 10.5664C16.5763 12.7041 15.3463 14.549 13.6185 15.7106Z" fill="black"/>
</svg>
