<svg width="19" height="17" viewBox="0 0 19 17" fill="none" xmlns="http://www.w3.org/2000/svg">
<path d="M18.3061 3.05383C17.8417 3.67335 17.2803 4.21376 16.6436 4.65419C16.6436 4.81602 16.6436 4.97785 16.6436 5.14868C16.6487 8.08753 15.4748 10.9055 13.3851 12.9709C11.2953 15.0363 8.46451 16.1763 5.52736 16.1353C3.8293 16.141 2.15299 15.7533 0.629735 15.0025C0.547595 14.9666 0.494625 14.8854 0.494935 14.7957V14.6968C0.494935 14.5677 0.599545 14.4631 0.728585 14.4631C2.39774 14.408 4.00733 13.8293 5.32965 12.8088C3.81884 12.7783 2.4595 11.8833 1.83391 10.5071C1.80232 10.432 1.81215 10.3457 1.85988 10.2796C1.9076 10.2135 1.98632 10.1771 2.06757 10.1835C2.52674 10.2296 2.9905 10.1869 3.43352 10.0576C1.76571 9.71143 0.512525 8.32683 0.333175 6.63213C0.326805 6.55083 0.363235 6.47213 0.429315 6.42433C0.495385 6.37663 0.581555 6.36673 0.656695 6.39843C1.10426 6.59593 1.5874 6.69993 2.07655 6.70403C0.615155 5.74489 -0.0160751 3.92048 0.539865 2.26265C0.597255 2.10156 0.735125 1.98255 0.902815 1.94937C1.0705 1.91618 1.24328 1.97371 1.35764 2.10082C3.32971 4.19968 6.03935 5.45039 8.91521 5.58922C8.84161 5.29528 8.80542 4.99319 8.80742 4.69015C8.83432 3.10115 9.81751 1.68564 11.2967 1.1063C12.7758 0.526968 14.4582 0.898458 15.5563 2.04687C16.3047 1.90428 17.0283 1.65288 17.704 1.30064C17.7535 1.26974 17.8163 1.26974 17.8658 1.30064C17.8967 1.35016 17.8967 1.41295 17.8658 1.46247C17.5385 2.21195 16.9856 2.84055 16.2842 3.26062C16.8984 3.18939 17.5018 3.0445 18.0815 2.82907C18.1303 2.79585 18.1944 2.79585 18.2432 2.82907C18.2841 2.84777 18.3147 2.88354 18.3268 2.92685C18.3389 2.97016 18.3313 3.01661 18.3061 3.05383Z" fill="black"/>
</svg>
