<svg width="18" height="19" viewBox="0 0 18 19" fill="none" xmlns="http://www.w3.org/2000/svg">
<path fill-rule="evenodd" clip-rule="evenodd" d="M13 0.225586H5C2.23858 0.225586 0 2.46417 0 5.22559V13.2256C0 15.987 2.23858 18.2256 5 18.2256H13C15.7614 18.2256 18 15.987 18 13.2256V5.22559C18 2.46417 15.7614 0.225586 13 0.225586ZM16.25 13.2256C16.2445 15.0182 14.7926 16.4701 13 16.4756H5C3.20735 16.4701 1.75549 15.0182 1.75 13.2256V5.22559C1.75549 3.43294 3.20735 1.98108 5 1.97559H13C14.7926 1.98108 16.2445 3.43294 16.25 5.22559V13.2256ZM13.75 5.47559C14.3023 5.47559 14.75 5.02787 14.75 4.47559C14.75 3.92331 14.3023 3.47559 13.75 3.47559C13.1977 3.47559 12.75 3.92331 12.75 4.47559C12.75 5.02787 13.1977 5.47559 13.75 5.47559ZM9 4.72559C6.51472 4.72559 4.5 6.74031 4.5 9.22559C4.5 11.7109 6.51472 13.7256 9 13.7256C11.4853 13.7256 13.5 11.7109 13.5 9.22559C13.5027 8.03129 13.0294 6.88516 12.1849 6.04067C11.3404 5.19618 10.1943 4.72293 9 4.72559ZM6.25 9.22559C6.25 10.7444 7.4812 11.9756 9 11.9756C10.5188 11.9756 11.75 10.7444 11.75 9.22559C11.75 7.70679 10.5188 6.47559 9 6.47559C7.4812 6.47559 6.25 7.70679 6.25 9.22559Z" fill="black"/>
</svg>
